<mxfile host="app.diagrams.net" modified="2024-06-10T00:30:23.267Z" agent="Mozilla/5.0 (Windows NT 10.0; Win64; x64) AppleWebKit/537.36 (KHTML, like Gecko) Chrome/125.0.0.0 Safari/537.36" etag="FC_j81SwtKCIaZHXJehm" version="24.3.1" type="github">
  <diagram name="PÃ¡gina-1" id="SigWqFesYOogLed_nVeq">
    <mxGraphModel dx="5050" dy="2088" grid="1" gridSize="10" guides="1" tooltips="1" connect="1" arrows="1" fold="1" page="1" pageScale="1" pageWidth="850" pageHeight="1100" math="0" shadow="0">
      <root>
        <mxCell id="0" />
        <mxCell id="1" parent="0" />
        <mxCell id="GEvEYw_Pzs-cB-Wqgyhl-1" value="INICIO" style="ellipse;whiteSpace=wrap;html=1;" vertex="1" parent="1">
          <mxGeometry x="750" y="10" width="120" height="80" as="geometry" />
        </mxCell>
        <mxCell id="GEvEYw_Pzs-cB-Wqgyhl-2" value="FIN" style="ellipse;whiteSpace=wrap;html=1;" vertex="1" parent="1">
          <mxGeometry x="-850" y="1300" width="120" height="80" as="geometry" />
        </mxCell>
        <mxCell id="GEvEYw_Pzs-cB-Wqgyhl-4" value="PEDIR AL USUARIO INGRESAR COMANDO" style="shape=parallelogram;perimeter=parallelogramPerimeter;whiteSpace=wrap;html=1;fixedSize=1;" vertex="1" parent="1">
          <mxGeometry x="730" y="210" width="160" height="60" as="geometry" />
        </mxCell>
        <mxCell id="GEvEYw_Pzs-cB-Wqgyhl-5" value="ADD" style="rhombus;whiteSpace=wrap;html=1;" vertex="1" parent="1">
          <mxGeometry x="420" y="220" width="80" height="80" as="geometry" />
        </mxCell>
        <mxCell id="GEvEYw_Pzs-cB-Wqgyhl-6" value="DEL" style="rhombus;whiteSpace=wrap;html=1;" vertex="1" parent="1">
          <mxGeometry x="70" y="400" width="80" height="80" as="geometry" />
        </mxCell>
        <mxCell id="GEvEYw_Pzs-cB-Wqgyhl-7" value="FIND" style="rhombus;whiteSpace=wrap;html=1;" vertex="1" parent="1">
          <mxGeometry x="-310" y="670" width="80" height="80" as="geometry" />
        </mxCell>
        <mxCell id="GEvEYw_Pzs-cB-Wqgyhl-8" value="PRINT" style="rhombus;whiteSpace=wrap;html=1;" vertex="1" parent="1">
          <mxGeometry x="-450" y="970" width="80" height="80" as="geometry" />
        </mxCell>
        <mxCell id="GEvEYw_Pzs-cB-Wqgyhl-9" value="STOP" style="rhombus;whiteSpace=wrap;html=1;" vertex="1" parent="1">
          <mxGeometry x="-600" y="1070" width="80" height="80" as="geometry" />
        </mxCell>
        <mxCell id="GEvEYw_Pzs-cB-Wqgyhl-13" value="NINGUNO DE LOS ANTERIORES" style="rhombus;whiteSpace=wrap;html=1;" vertex="1" parent="1">
          <mxGeometry x="-750" y="1150" width="120" height="120" as="geometry" />
        </mxCell>
        <mxCell id="GEvEYw_Pzs-cB-Wqgyhl-17" value="FORMATO DE FECHA" style="rhombus;whiteSpace=wrap;html=1;" vertex="1" parent="1">
          <mxGeometry x="670" y="490" width="80" height="80" as="geometry" />
        </mxCell>
        <mxCell id="GEvEYw_Pzs-cB-Wqgyhl-23" value="PEDIR AL USUARIO INGRESAR FECHA" style="shape=parallelogram;perimeter=parallelogramPerimeter;whiteSpace=wrap;html=1;fixedSize=1;" vertex="1" parent="1">
          <mxGeometry x="540" y="290" width="160" height="60" as="geometry" />
        </mxCell>
        <mxCell id="GEvEYw_Pzs-cB-Wqgyhl-25" value="PEDIR AL USUARIO INGRESAR EVENTO" style="shape=parallelogram;perimeter=parallelogramPerimeter;whiteSpace=wrap;html=1;fixedSize=1;" vertex="1" parent="1">
          <mxGeometry x="530" y="400" width="160" height="60" as="geometry" />
        </mxCell>
        <mxCell id="GEvEYw_Pzs-cB-Wqgyhl-28" value="SE METE LA INFORMACION A LA BASE DE DATOS" style="whiteSpace=wrap;html=1;aspect=fixed;" vertex="1" parent="1">
          <mxGeometry x="750" y="580" width="100" height="100" as="geometry" />
        </mxCell>
        <mxCell id="GEvEYw_Pzs-cB-Wqgyhl-29" value="SE MUESTRA EL RESPECTIVO ERROR" style="shape=parallelogram;perimeter=parallelogramPerimeter;whiteSpace=wrap;html=1;fixedSize=1;" vertex="1" parent="1">
          <mxGeometry x="520" y="590" width="150" height="60" as="geometry" />
        </mxCell>
        <mxCell id="GEvEYw_Pzs-cB-Wqgyhl-30" value="SI TIENE FECHA Y EVENTO" style="rhombus;whiteSpace=wrap;html=1;" vertex="1" parent="1">
          <mxGeometry x="170" y="510" width="120" height="120" as="geometry" />
        </mxCell>
        <mxCell id="GEvEYw_Pzs-cB-Wqgyhl-32" value="SE ELIMINA EL ELEMENTO&amp;nbsp; MENCIONADO" style="whiteSpace=wrap;html=1;aspect=fixed;" vertex="1" parent="1">
          <mxGeometry x="450" y="700" width="80" height="80" as="geometry" />
        </mxCell>
        <mxCell id="GEvEYw_Pzs-cB-Wqgyhl-33" value="SE ELIMINA LOS DATOS ANTERIORES AL MENCIONADO" style="whiteSpace=wrap;html=1;aspect=fixed;" vertex="1" parent="1">
          <mxGeometry x="50" y="610" width="100" height="100" as="geometry" />
        </mxCell>
        <mxCell id="GEvEYw_Pzs-cB-Wqgyhl-34" value="SE MUESTRA &quot;Deleted N events&quot;" style="shape=parallelogram;perimeter=parallelogramPerimeter;whiteSpace=wrap;html=1;fixedSize=1;" vertex="1" parent="1">
          <mxGeometry x="20" y="750" width="120" height="60" as="geometry" />
        </mxCell>
        <mxCell id="GEvEYw_Pzs-cB-Wqgyhl-35" value="SE MUESTRA&lt;br&gt;&quot;Delete sucesfuly&quot;" style="shape=parallelogram;perimeter=parallelogramPerimeter;whiteSpace=wrap;html=1;fixedSize=1;" vertex="1" parent="1">
          <mxGeometry x="430" y="830" width="120" height="60" as="geometry" />
        </mxCell>
        <mxCell id="GEvEYw_Pzs-cB-Wqgyhl-36" value="EXISTE EL ELEMENTO MENCIONADO" style="rhombus;whiteSpace=wrap;html=1;" vertex="1" parent="1">
          <mxGeometry x="320" y="560" width="130" height="130" as="geometry" />
        </mxCell>
        <mxCell id="GEvEYw_Pzs-cB-Wqgyhl-37" value="SE MUESTRA&lt;br&gt;&quot;Event not found&quot;" style="shape=parallelogram;perimeter=parallelogramPerimeter;whiteSpace=wrap;html=1;fixedSize=1;" vertex="1" parent="1">
          <mxGeometry x="210" y="710" width="120" height="60" as="geometry" />
        </mxCell>
        <mxCell id="GEvEYw_Pzs-cB-Wqgyhl-39" value="PEDIR AL USUARIO INGRESAR FECHA" style="shape=parallelogram;perimeter=parallelogramPerimeter;whiteSpace=wrap;html=1;fixedSize=1;" vertex="1" parent="1">
          <mxGeometry x="-200" y="750" width="160" height="60" as="geometry" />
        </mxCell>
        <mxCell id="GEvEYw_Pzs-cB-Wqgyhl-41" value="FORMATO DE FECHA" style="rhombus;whiteSpace=wrap;html=1;" vertex="1" parent="1">
          <mxGeometry x="-160" y="860" width="80" height="80" as="geometry" />
        </mxCell>
        <mxCell id="GEvEYw_Pzs-cB-Wqgyhl-42" value="SE MUESTRA EL RESPECTIVO ERROR" style="shape=parallelogram;perimeter=parallelogramPerimeter;whiteSpace=wrap;html=1;fixedSize=1;" vertex="1" parent="1">
          <mxGeometry x="-310" y="960" width="150" height="60" as="geometry" />
        </mxCell>
        <mxCell id="GEvEYw_Pzs-cB-Wqgyhl-43" value="SE MUESTRAN LOS EVENTOS DE ESA FECHA EN ORDEN ALFABETICO" style="shape=parallelogram;perimeter=parallelogramPerimeter;whiteSpace=wrap;html=1;fixedSize=1;" vertex="1" parent="1">
          <mxGeometry x="-80" y="950" width="160" height="80" as="geometry" />
        </mxCell>
        <mxCell id="GEvEYw_Pzs-cB-Wqgyhl-44" value="RECOPILA TODA LA INFORMACION" style="whiteSpace=wrap;html=1;aspect=fixed;" vertex="1" parent="1">
          <mxGeometry x="-360" y="1040" width="80" height="80" as="geometry" />
        </mxCell>
        <mxCell id="GEvEYw_Pzs-cB-Wqgyhl-45" value="MUESTRA LA INFORMACION DEL MAP EN EL ORDEN Y FORMATO CORRECTO" style="shape=parallelogram;perimeter=parallelogramPerimeter;whiteSpace=wrap;html=1;fixedSize=1;" vertex="1" parent="1">
          <mxGeometry x="-415" y="1160" width="190" height="110" as="geometry" />
        </mxCell>
        <mxCell id="GEvEYw_Pzs-cB-Wqgyhl-46" value="SE MUESTRA &quot;No comand found&quot;" style="shape=parallelogram;perimeter=parallelogramPerimeter;whiteSpace=wrap;html=1;fixedSize=1;" vertex="1" parent="1">
          <mxGeometry x="-660" y="1300" width="140" height="70" as="geometry" />
        </mxCell>
        <mxCell id="GEvEYw_Pzs-cB-Wqgyhl-49" value="BASE DE DATOS" style="whiteSpace=wrap;html=1;aspect=fixed;" vertex="1" parent="1">
          <mxGeometry x="770" y="110" width="80" height="80" as="geometry" />
        </mxCell>
      </root>
    </mxGraphModel>
  </diagram>
</mxfile>
